<?xml version="1.0" encoding="UTF-8" standalone="no"?>
<svg
   xmlns:dc="http://purl.org/dc/elements/1.1/"
   xmlns:cc="http://creativecommons.org/ns#"
   xmlns:rdf="http://www.w3.org/1999/02/22-rdf-syntax-ns#"
   xmlns:svg="http://www.w3.org/2000/svg"
   xmlns="http://www.w3.org/2000/svg"
   xmlns:sodipodi="http://sodipodi.sourceforge.net/DTD/sodipodi-0.dtd"
   xmlns:inkscape="http://www.inkscape.org/namespaces/inkscape"
   version="1.1"
   id="svg2"
   xml:space="preserve"
   width="259.78668"
   height="47.666668"
   viewBox="0 0 259.78668 47.666668"
   sodipodi:docname="UF_Signature.eps"><metadata
     id="metadata8"><rdf:RDF><cc:Work
         rdf:about=""><dc:format>image/svg+xml</dc:format><dc:type
           rdf:resource="http://purl.org/dc/dcmitype/StillImage" /></cc:Work></rdf:RDF></metadata><defs
     id="defs6" /><sodipodi:namedview
     pagecolor="#ffffff"
     bordercolor="#666666"
     borderopacity="1"
     objecttolerance="10"
     gridtolerance="10"
     guidetolerance="10"
     inkscape:pageopacity="0"
     inkscape:pageshadow="2"
     inkscape:window-width="640"
     inkscape:window-height="480"
     id="namedview4" /><g
     id="g10"
     inkscape:groupmode="layer"
     inkscape:label="ink_ext_XXXXXX"
     transform="matrix(1.3333333,0,0,-1.3333333,0,47.666667)"><g
       id="g12"
       transform="scale(0.1)"><path
         d="M 560.715,345.465 V 6.62109 h 15 V 345.465 h -15 v 0"
         style="fill:#f3632b;fill-opacity:1;fill-rule:nonzero;stroke:none"
         id="path14" /><path
         d="m 1776.68,309.477 c 3.48,0 6.66,-0.024 9.59,-0.075 l -10.58,-54.746 c -2.78,-14.98 -5.03,-24.812 -6.73,-29.5 -0.88,-2.34 -1.93,-3.961 -3.13,-4.863 -1.2,-0.902 -2.5,-1.359 -3.92,-1.359 -1.47,0 -2.8,0.515 -4,1.535 -1.2,1.019 -2.3,2.695 -3.33,5.027 l -2.34,-0.437 c -0.55,-2.637 -1.14,-5.071 -1.81,-7.289 -0.65,-2.223 -1.67,-5.141 -3.04,-8.762 2,-0.828 3.86,-1.246 5.57,-1.246 2.29,0 4.69,0.66 7.18,1.98 4.73,2.488 9.41,6.41 14.02,11.75 4.62,5.348 8.31,11.524 11.06,18.528 2.76,7.011 6.1,18.394 10,34.164 l 8.12,35.218 c 1.61,0.051 4.06,0.075 7.34,0.075 5.25,0 9.02,-0.024 11.31,-0.075 0.49,2.403 1.25,4.93 2.28,7.575 l -0.73,1.175 c -1.58,-0.293 -3.96,-0.535 -7.13,-0.73 -5.25,-0.344 -8.53,-0.488 -9.85,-0.442 h -1.69 c 1.14,6.485 2.57,12.969 4.32,19.461 0.69,2.434 1.37,4.243 2.02,5.411 0.67,1.171 1.55,2.093 2.69,2.781 1.11,0.68 2.29,1.019 3.51,1.019 1.57,0 3.33,-0.632 5.29,-1.902 1.95,-1.273 3.95,-3.453 6.01,-6.535 l 2.19,0.441 c 0.83,5.867 2.22,12.106 4.14,18.699 -2.05,0.782 -4.04,1.172 -6.01,1.172 -2.98,0 -5.29,-0.351 -6.92,-1.058 -1.64,-0.707 -5.06,-2.938 -10.25,-6.699 -5.22,-3.754 -9.95,-7.614 -14.19,-11.563 -2.74,-2.582 -4.77,-5.098 -6.09,-7.535 -0.83,-1.563 -1.71,-4.442 -2.63,-8.637 -0.4,-1.855 -0.72,-3.148 -0.96,-3.883 -2.04,-0.929 -4.68,-1.855 -7.88,-2.761 -3.22,-0.911 -5.61,-1.661 -7.17,-2.25 l -0.65,-3.739 c 1.18,0.051 2.63,0.075 4.39,0.075 v 0 z m -67.26,-17.196 c 2.17,8.157 4.65,13.684 7.45,16.594 2.78,2.902 6.13,4.355 10.04,4.355 3.81,0 6.91,-1.328 9.28,-3.992 2.37,-2.66 3.57,-6.972 3.57,-12.929 0,-7.032 -1.04,-14.407 -3.09,-22.125 -1.42,-5.274 -2.97,-9.414 -4.66,-12.418 -1.69,-3 -3.54,-5.176 -5.57,-6.516 -2.04,-1.344 -4.44,-2.02 -7.23,-2.02 -4.16,0 -7.36,1.297 -9.65,3.887 -2.27,2.59 -3.41,6.887 -3.41,12.891 0,6.691 1.1,14.117 3.27,22.273 z m -18.56,-34.699 c 1.33,-3.59 3.68,-6.41 7.08,-8.461 3.4,-2.051 8.01,-3.074 13.81,-3.074 4.93,0 9.36,0.746 13.3,2.234 3.93,1.489 8.04,3.66 12.31,6.52 4.27,2.855 7.42,5.453 9.42,7.797 2.78,3.367 5.23,8.238 7.36,14.609 2.12,6.371 3.18,12.758 3.18,19.148 0,3.372 -0.41,6.477 -1.24,9.309 -0.83,2.832 -2.12,5.258 -3.87,7.285 -1.77,2.028 -4.39,3.672 -7.85,4.942 -3.47,1.269 -7.31,1.902 -11.51,1.902 -5.03,0 -9.77,-0.961 -14.25,-2.891 -4.47,-1.925 -8.57,-4.367 -12.31,-7.324 -3.74,-2.953 -6.34,-5.332 -7.79,-7.137 -2.36,-2.882 -4.54,-7.597 -6.57,-14.14 -2.03,-6.543 -3.03,-12.836 -3.03,-18.891 0,-4.297 0.65,-8.238 1.96,-11.828 v 0"
         style="fill:#1b4f9c;fill-opacity:1;fill-rule:nonzero;stroke:none"
         id="path16" /><path
         d="m 1819.84,165.535 32.42,-78.3397 c -9.2,-0.3125 -19.62,-0.4765 -31.25,-0.4765 -12.04,0 -22.81,0.164 -32.32,0.4765 l 31.15,78.3397 z M 1756.64,6.41406 1791.53,5.32031 V 17.8203 c -12,0.4024 -19.21,1.3008 -21.62,2.7149 -1.61,1.0078 -2.42,2.7187 -2.42,5.1171 0,3.4297 2.52,12.0704 7.54,25.9493 l 6.62,18.0937 h 78.14 l 12.97,-33.1836 c 2.32,-5.7304 3.48,-9.8515 3.48,-12.3633 0,-2.0117 -0.79,-3.4336 -2.34,-4.2968 -1.57,-0.8594 -8.46,-1.5313 -20.67,-2.0313 V 5.32031 l 53.11,1.09375 42.05,-1.09375 V 17.8203 c -2.93,0.293 -5.15,0.5469 -6.66,0.7422 -4.74,0.3164 -7.69,0.6641 -8.85,1.0664 -1.16,0.4102 -2.19,1.0039 -3.09,1.8242 -0.91,0.8047 -1.88,2.1094 -2.88,3.9375 l -6.05,13.9336 -9.38,20.7344 -67.61,158.0704 h -21.58 l -13.31,-34.371 -39.49,-97.508 c -7.47,-18.4687 -12.51,-30.8398 -15.12,-37.0898 -5.76,-13.3321 -9.21,-21.0274 -10.37,-23.0977 -1.17,-2.0703 -2.3,-3.582 -3.4,-4.5391 -1.12,-0.9492 -2.46,-1.6601 -4.02,-2.1211 -1.56,-0.4492 -6.42,-0.9765 -14.6,-1.582 V 5.32031 l 34.66,1.09375 z M 1584.91,83.4648 v 34.7582 c 0,39.59 0.52,66.539 1.56,80.843 9.39,1.356 17.97,2.032 25.75,2.032 20.67,0 36.11,-1.817 46.31,-5.45 10.18,-3.632 18.61,-9.488 25.27,-17.558 6.66,-8.07 11.45,-17.485 14.38,-28.227 2.92,-10.754 4.39,-21.886 4.39,-33.39 0,-12.594 -1.47,-24.3636 -4.39,-35.2621 -2.93,-10.8984 -7.04,-20.2851 -12.34,-28.1562 -5.29,-7.8711 -10.82,-13.8281 -16.56,-17.8711 -5.76,-4.0234 -12.46,-7.1094 -20.14,-9.2188 -10.4,-2.832 -22.29,-4.246 -35.72,-4.246 -8.58,0 -17.56,0.7812 -26.95,2.3515 -1.04,9.5703 -1.56,29.3555 -1.56,59.3945 v 0 z m -13.06,-77.05074 44.92,-1.09375 c 20.36,0 37.76,2.23828 52.19,6.73049 14.41,4.5 27.81,11.8437 40.15,22.039 12.35,10.1954 22.06,22.875 29.12,38.0196 7.06,15.1484 10.59,32.3636 10.59,51.6406 0,15.145 -2.36,29.082 -7.11,41.805 -2.82,7.57 -6.98,14.64 -12.48,21.203 -5.5,6.562 -12.23,12.242 -20.2,17.043 -7.97,4.793 -17.32,8.273 -28.05,10.445 -10.76,2.168 -25.05,3.258 -42.89,3.258 -7.78,0 -18.12,-0.176 -31.02,-0.527 -17.85,-0.586 -30.01,-0.879 -36.45,-0.879 l -54.93,1.093 v -12.187 c 10.96,-1.414 17.3,-2.324 19.01,-2.731 1.71,-0.402 2.97,-1.003 3.77,-1.812 0.5,-0.512 0.91,-1.215 1.21,-2.121 1,-3.942 1.66,-13.027 1.95,-27.266 0.52,-25.754 0.78,-45.293 0.78,-58.625 V 87.6055 c 0,-30.3907 -0.56,-52.3633 -1.72,-65.8867 -3.2,-2.336 -6.69,-4.5625 -10.48,-6.6797 -2.01,-1.125 -3.4,-1.9258 -4.19,-2.4336 V 5.32031 l 45.83,1.09375 z M 1454.72,216.098 c -16.48,0 -31.09,0.367 -43.82,1.093 V 203.91 c 11.03,-0.402 17.42,-0.836 19.19,-1.289 1.78,-0.453 3,-1.035 3.64,-1.742 0.66,-0.707 1.14,-1.719 1.46,-3.027 0.69,-3.235 1.3,-11.27 1.81,-24.094 0.21,-5.762 0.31,-18.692 0.31,-38.789 V 71.6328 c 0,-10.3047 -0.42,-21.5273 -1.25,-33.6445 -0.5,-8.2735 -0.9,-13.0274 -1.21,-14.2383 -0.21,-0.9102 -0.69,-1.7187 -1.44,-2.4336 -0.75,-0.7031 -2.2,-1.2578 -4.32,-1.6601 -1.62,-0.3125 -7.67,-0.6641 -18.19,-1.0547 V 5.32031 c 12.73,0.72657 27.23,1.09375 43.5,1.09375 18.71,0 36.28,-0.36718 52.75,-1.09375 V 18.6016 c -9.96,0.1992 -16,0.5312 -18.08,0.9765 -2.09,0.461 -3.61,1.0547 -4.58,1.8164 -0.96,0.7618 -1.66,1.8477 -2.06,3.2618 -1.01,3.1367 -1.53,9.9023 -1.53,20.3046 l -0.47,27.7227 V 133.75 c 0,1.926 0.21,15.313 0.63,40.156 0.1,7.274 0.26,12.227 0.47,14.852 0.31,4.851 0.81,8.133 1.53,9.851 0.3,1.008 0.87,1.84 1.68,2.493 0.81,0.66 2.18,1.218 4.12,1.671 1.92,0.454 8.02,0.836 18.29,1.137 v 13.281 c -16.47,-0.726 -33.95,-1.093 -52.43,-1.093 v 0 z m -241.48,-14.59 c 1,-0.61 1.75,-1.469 2.25,-2.574 1,-2.528 1.6,-10.094 1.8,-22.715 l 0.79,-31.953 V 88.0938 l -1.25,-44.2149 c -0.31,-7.9726 -0.8,-13.9297 -1.51,-17.8555 -0.31,-2.1289 -0.73,-3.5429 -1.29,-4.2382 -0.54,-0.7227 -1.42,-1.211 -2.62,-1.5235 -2.11,-0.7109 -8.91,-1.2695 -20.37,-1.6601 V 5.32031 c 13.41,0.72657 27.98,1.09375 43.72,1.09375 17.63,0 35.08,-0.36718 52.33,-1.09375 V 18.6016 c -9.68,0.1992 -15.54,0.5 -17.56,0.9101 -2.01,0.3985 -3.48,0.9258 -4.38,1.5742 -0.91,0.6602 -1.57,1.3946 -1.97,2.2032 -0.81,1.7109 -1.36,5.3906 -1.67,11.0351 -0.21,2.8242 -0.51,14.6289 -0.93,35.4102 -0.32,16.9258 -0.46,32.9686 -0.46,48.0976 0,9.578 0.3,28.621 0.92,57.176 0.33,12.734 0.63,20.926 0.94,24.562 4.75,0.813 9.55,1.215 14.41,1.215 10.9,0 18.47,-0.758 22.72,-2.269 6.56,-2.422 12.07,-6.711 16.52,-12.868 4.44,-6.156 6.66,-13.882 6.66,-23.16 0,-9.187 -2.11,-17.48 -6.35,-24.898 -4.26,-7.426 -9.46,-12.563 -15.63,-15.442 -6.17,-2.882 -15.31,-4.113 -27.44,-3.703 l -1.67,-5 c 3.03,-2.215 6.16,-5.547 9.4,-9.98 6.45,-8.7697 14.33,-20.8205 23.61,-36.1525 l 32.41,-53.3789 c 1.92,-3.5234 3.14,-6.40626 3.63,-8.61329 7.97,0.41016 16,0.625 24.08,0.625 6.95,0 18.2,-0.21484 33.75,-0.625 V 18.6016 c -4.75,0.0976 -7.92,0.5 -9.54,1.1953 -1.62,0.6992 -3.29,1.9492 -5,3.75 -1.71,1.8047 -6.35,7.7109 -13.93,17.7226 -0.51,0.7032 -3.89,5.7032 -10.15,15.0078 L 1336,91.2695 c -0.62,0.9063 -1.2,1.8438 -1.75,2.8516 -0.56,1.0078 -2.44,3.8477 -5.68,8.5629 -3.23,4.699 -6.11,9.308 -8.63,13.808 15.77,5.86 27.45,13.781 35.04,23.77 7.58,10 11.39,21.105 11.39,33.324 0,10.297 -2.79,19.031 -8.33,26.199 -5.56,7.168 -12.28,11.887 -20.15,14.156 -7.87,2.27 -19.73,3.407 -35.57,3.407 -8.18,0 -18.53,-0.289 -31.04,-0.868 -7.57,-0.464 -16.65,-0.695 -27.25,-0.695 -12.42,0 -22,0.121 -28.76,0.367 -13.82,0.485 -21.91,0.727 -24.23,0.727 v -12.344 c 12.41,-0.805 19.8,-1.816 22.2,-3.027 v 0 z m -198.12,-38.863 c 4.69,13.554 12.21,23.789 22.56,30.718 10.35,6.926 22.89,10.391 37.62,10.391 12.92,0 23.29,-2.176 31.12,-6.524 7.82,-4.347 14.61,-10.64 20.37,-18.882 5.74,-8.243 10.15,-18.231 13.23,-29.961 3.09,-11.727 4.62,-24.676 4.62,-38.828 0,-20.6254 -2.84,-38.1645 -8.55,-52.6254 -5.71,-14.4727 -13.58,-24.7383 -23.62,-30.8008 -10.04,-6.0664 -21.42,-9.1015 -34.13,-9.1015 -13.73,0 -25.64,3.1914 -35.74,9.5585 -10.08,6.3711 -18.36,17.2657 -24.83,32.6954 -6.46,15.4101 -9.68,34.9023 -9.68,58.4568 0,16.391 2.34,31.36 7.03,44.903 z M 975.445,48.7578 C 984.727,32.7031 997.5,20.5742 1013.81,12.3516 1030.08,4.12109 1049.58,0 1072.29,0 c 20.97,0 39.63,3.38672 55.97,10.1445 11.91,5.0586 22.52,12.2657 31.86,21.6602 9.32,9.3867 16.41,20.1367 21.26,32.2578 6.55,16.25 9.82,33.8672 9.82,52.8395 0,11.211 -1.13,21.457 -3.4,30.743 -2.26,9.289 -5.61,17.816 -10.06,25.585 -4.44,7.782 -10.91,15.372 -19.45,22.793 -8.51,7.422 -18.33,13.102 -29.41,17.043 -14.94,5.141 -31.59,7.719 -49.95,7.719 -18.46,0 -35.49,-2.676 -51.14,-8.023 -12.2,-4.242 -23.49,-11.16 -33.884,-20.75 -10.41,-9.59 -18.394,-21.25 -23.996,-34.981 -5.59,-13.73 -8.387,-29.836 -8.387,-48.301 0,-23.9331 4.637,-43.9175 13.922,-59.9722 z M 844.871,6.71875 c 6.551,0 18.152,-0.20703 34.801,-0.61719 21.883,-0.52734 33.742,-0.78125 35.555,-0.78125 12.91,0 22.433,0.25391 28.597,0.78125 2.918,0.3125 5.848,0.87891 8.77,1.71875 0.101,1.91407 0.558,7.65629 1.371,17.24609 l 3.801,30.5664 c 0,0.5078 0.144,2.168 0.457,5 h -12.5 c -1.918,-9.9414 -3.891,-18.7695 -5.91,-26.4609 -0.911,-3.0391 -1.77,-4.9258 -2.571,-5.625 -0.812,-0.7149 -3.289,-1.3711 -7.429,-1.9766 -11.411,-1.7734 -24.79,-2.6562 -40.141,-2.6562 -5.047,0 -14.551,0.3515 -28.481,1.0859 -0.105,3.0352 -0.191,11.6328 -0.238,25.8086 -0.051,14.1797 -0.133,28.4766 -0.23,42.9102 -0.098,27.3442 -0.153,41.9332 -0.153,43.7422 0,16.965 0.231,30.984 0.703,42.078 0.461,11.102 0.95,17.336 1.461,18.691 0.496,1.368 1.309,2.352 2.418,2.958 2.52,1.312 9.481,2.218 20.883,2.722 v 13.281 c -16.441,-0.726 -33.851,-1.093 -52.211,-1.093 -16.441,0 -31.07,0.367 -43.883,1.093 V 203.91 c 13.164,-0.504 20.903,-1.519 23.235,-3.031 1.105,-0.606 1.867,-1.516 2.277,-2.727 0.91,-2.722 1.539,-13.578 1.883,-32.558 0.18,-7.469 0.258,-27.149 0.258,-59.051 0,-21.7071 -0.211,-40.3125 -0.621,-55.8125 -0.418,-15.5078 -0.879,-24.5117 -1.383,-27.0313 -0.098,-0.6054 -0.348,-1.1601 -0.746,-1.6679 -0.61,-0.8125 -1.961,-1.8086 -4.074,-3.0196 -4.715,-2.832 -8.375,-4.8008 -10.985,-5.9179 V 5.32031 C 819.949,6.25 834.98,6.71875 844.871,6.71875 v 0 z M 760.609,144.531 h -13.285 c -0.199,-8.957 -0.754,-14.687 -1.648,-17.218 -0.613,-1.903 -1.567,-3.067 -2.871,-3.458 -3.418,-1.21 -11.653,-1.824 -24.715,-1.824 -4.527,0 -13.219,0.36 -26.078,1.063 v 21.054 c 0,26.172 0.57,44.266 1.718,54.293 2.825,0.18 8.145,0.411 15.942,0.684 7.808,0.273 12.57,0.41 14.293,0.41 8.855,0 16.586,-0.574 23.187,-1.726 6.602,-1.153 10.813,-2.332 12.621,-3.532 0.598,-0.304 1.055,-0.8 1.36,-1.5 0.398,-0.902 0.707,-3.554 0.91,-7.957 0.5,-8.414 0.75,-13.812 0.75,-16.218 h 12.348 c 0.101,6.66 0.55,14.429 1.351,23.312 0.813,8.883 1.762,16.199 2.867,21.957 l -1.367,2.121 c -9.082,1.012 -18.719,1.512 -28.922,1.512 l -72.824,-1.406 -53.766,1.093 v -12.656 c 9.762,-0.605 15.735,-1.16 17.918,-1.668 2.184,-0.504 3.618,-1.035 4.274,-1.59 0.66,-0.554 1.141,-1.39 1.449,-2.5 0.91,-3.23 1.473,-8.742 1.672,-16.519 0.937,-26.875 1.41,-41.028 1.41,-42.445 V 77.0703 c 0,-5.3515 -0.258,-14.1719 -0.781,-26.4375 -0.524,-12.2851 -0.942,-19.5859 -1.238,-21.9023 -0.508,-4.0352 -1.223,-6.6719 -2.141,-7.8828 -0.609,-0.8086 -1.371,-1.3672 -2.277,-1.668 -1.832,-0.7149 -8.59,-1.1641 -20.286,-1.3594 V 5.32031 c 18.625,0.72657 32.223,1.09375 40.821,1.09375 L 722.793,5.32031 V 17.3516 c -14.027,0.9961 -21.949,1.8359 -23.762,2.4922 -1.82,0.6523 -3.078,1.5351 -3.789,2.6445 -1.008,1.6133 -1.801,7.2265 -2.371,16.8555 -0.566,9.6289 -0.859,26.3984 -0.859,50.2851 v 16.7851 c 5.73,0.098 9.75,0.156 12.058,0.156 16.071,0 27.832,-0.664 35.27,-1.972 2.91,-0.606 4.723,-1.563 5.422,-2.871 1.41,-2.6176 2.258,-10.2348 2.562,-22.8129 h 13.285 c 0,26.6019 0,48.4879 0,65.6169 v 0 0"
         style="fill:#1b4f9c;fill-opacity:1;fill-rule:nonzero;stroke:none"
         id="path18" /><path
         d="m 1579.04,321.102 c -3.04,5.968 -6.11,11.226 -9.2,15.796 -2.07,3.086 -3.7,5.192 -4.89,6.309 -1.18,1.125 -3.06,2.402 -5.63,3.84 -2.42,-0.637 -4.77,-1.207 -7.04,-1.711 l -13.46,-2.664 v -4.766 c 3.17,0 5.04,-0.129 5.58,-0.383 0.89,-0.464 2.4,-1.839 4.52,-4.121 3.17,-3.464 6.6,-8.074 10.27,-13.828 4.53,-7.058 8.79,-14.226 12.76,-21.504 1.61,-3.043 2.43,-5.054 2.43,-6.023 v -12.051 c 0,-3.387 -0.11,-7.488 -0.33,-12.312 -0.11,-2.11 -0.35,-3.379 -0.66,-3.801 -0.31,-0.426 -0.89,-0.738 -1.72,-0.953 -0.82,-0.211 -3.64,-0.403 -8.48,-0.571 v -5.625 c 6.53,0.313 12.94,0.469 19.29,0.469 6.51,0 13.81,-0.156 21.9,-0.469 v 5.625 c -4.73,0.082 -7.52,0.254 -8.41,0.508 -0.9,0.254 -1.54,0.633 -1.92,1.141 -0.38,0.508 -0.71,1.988 -0.98,4.437 -0.29,2.457 -0.41,6.368 -0.41,11.739 v 10.722 c 0,2.199 0.09,3.785 0.3,4.758 0.3,1.356 0.92,2.938 1.84,4.762 1.4,2.664 5.07,8.656 11.01,17.969 5.94,9.308 11.48,17.41 16.6,24.308 v 2.86 h -10.03 c -0.58,-1.227 -2.05,-3.868 -4.36,-7.926 -6.68,-11.832 -10.7,-18.91 -12.04,-21.235 l -8,-12.937 c -1.01,2.195 -4,8.074 -8.94,17.637 v 0 z m -103.96,-63.821 c 5.64,0 12.58,-0.183 20.79,-0.547 v 5.235 c -5.1,0.168 -8.13,0.515 -9.1,1.047 -0.99,0.527 -1.61,1.343 -1.92,2.441 -0.47,1.863 -0.7,7.363 -0.7,16.5 v 38.012 c 0,10.113 0.06,15.91 0.2,17.39 h 9.07 c 4.87,0 9.04,-0.171 12.51,-0.507 1.1,-0.086 1.78,-0.231 2.03,-0.446 0.3,-0.293 0.58,-1.203 0.83,-2.726 0.48,-3 0.74,-6.153 0.83,-9.446 h 5.23 c 0.12,8.93 0.21,13.563 0.26,13.899 0.08,1.949 0.3,4.211 0.68,6.793 l -0.63,0.637 c -1.99,-0.211 -3.96,-0.352 -5.89,-0.438 -3.61,-0.125 -10.73,-0.187 -21.38,-0.187 h -25.6 c -10.37,0 -17.36,0.062 -21,0.187 -2.24,0.086 -4.35,0.227 -6.34,0.438 l -0.57,-0.637 c 0.3,-2.156 0.5,-4.164 0.63,-6.031 0.04,-1.098 0.15,-5.985 0.31,-14.661 h 5.24 c 0.08,3.676 0.41,6.996 0.95,9.954 0.21,1.226 0.46,1.964 0.77,2.218 0.2,0.215 1.01,0.379 2.42,0.508 3.46,0.297 7.5,0.445 12.07,0.445 h 9.1 c 0.11,-1.226 0.16,-7.023 0.16,-17.39 v -38.012 c 0,-9.137 -0.24,-14.613 -0.71,-16.434 -0.34,-1.187 -0.98,-2.031 -1.94,-2.539 -0.96,-0.507 -3.98,-0.847 -9.07,-1.015 v -5.235 c 7.83,0.364 14.76,0.547 20.77,0.547 v 0 z m -88.17,87.813 c -6.9,0 -13.01,0.156 -18.35,0.469 v -5.625 c 4.59,-0.172 7.25,-0.348 7.99,-0.54 0.74,-0.191 1.24,-0.433 1.52,-0.73 0.27,-0.293 0.47,-0.719 0.59,-1.266 0.3,-1.359 0.55,-4.718 0.76,-10.089 0.1,-2.411 0.16,-7.821 0.16,-16.239 v -26.515 c 0,-4.317 -0.19,-9.008 -0.55,-14.082 -0.21,-3.465 -0.38,-5.454 -0.49,-5.961 -0.09,-0.379 -0.3,-0.719 -0.61,-1.016 -0.31,-0.297 -0.92,-0.527 -1.8,-0.699 -0.67,-0.125 -3.2,-0.274 -7.57,-0.442 v -5.625 c 5.34,0.313 11.41,0.469 18.23,0.469 7.82,0 15.18,-0.156 22.09,-0.469 v 5.625 c -4.18,0.082 -6.72,0.223 -7.6,0.414 -0.87,0.192 -1.5,0.438 -1.91,0.762 -0.41,0.313 -0.7,0.77 -0.86,1.363 -0.43,1.309 -0.65,4.141 -0.65,8.5 l -0.15,11.606 v 25.562 c 0,0.805 0.08,6.407 0.26,16.813 0.05,3.039 0.12,5.117 0.2,6.215 0.13,2.031 0.35,3.402 0.64,4.121 0.14,0.426 0.36,0.769 0.7,1.051 0.34,0.273 0.91,0.507 1.72,0.695 0.81,0.191 3.35,0.348 7.65,0.477 v 5.625 c -6.91,-0.313 -14.23,-0.469 -21.97,-0.469 v 0 z m -56.37,-12.321 c 0.26,2.637 0.69,5.329 1.28,8.071 l -0.51,1.519 c -3.09,1.52 -6.75,2.676 -10.96,3.481 -4.21,0.801 -8.55,1.203 -13.05,1.203 -4.32,0 -8.53,-0.477 -12.64,-1.426 -4.1,-0.953 -7.78,-2.531 -11.05,-4.726 -3.26,-2.204 -5.88,-5.301 -7.87,-9.297 -1.99,-4 -2.99,-8.368 -2.99,-13.102 0,-3.391 0.55,-6.547 1.65,-9.488 1.1,-2.938 2.78,-5.445 4.99,-7.52 2.22,-2.074 5.15,-3.66 8.8,-4.761 2.42,-0.715 7.45,-1.879 15.11,-3.489 5.34,-1.226 9.06,-2.414 11.18,-3.554 2.12,-1.149 3.67,-2.672 4.67,-4.579 1,-1.902 1.49,-4.191 1.49,-6.859 0,-3.172 -0.71,-6.012 -2.12,-8.512 -1.42,-2.5 -3.71,-4.453 -6.87,-5.871 -3.14,-1.422 -6.74,-2.129 -10.76,-2.129 -4.62,0 -8.88,1 -12.76,2.993 -3.91,1.992 -6.66,4.304 -8.27,6.937 -0.54,4.543 -0.79,8.34 -0.7,11.399 h -5.3 c -0.06,-9.864 -0.73,-17.215 -2.04,-22.04 4.86,-2.371 9.32,-4.043 13.39,-5.015 4.06,-0.973 8.7,-1.461 13.89,-1.461 7.11,0 13.2,1.016 18.28,3.047 3.18,1.269 6.26,3.183 9.26,5.742 3,2.559 5.35,5.383 7.05,8.469 2.25,4.101 3.36,8.863 3.36,14.277 0,3.086 -0.4,5.871 -1.21,8.348 -0.8,2.472 -1.83,4.523 -3.07,6.152 -1.25,1.629 -2.93,3.07 -5.05,4.316 -2.1,1.243 -4.88,2.313 -8.31,3.204 -1.3,0.296 -4.15,0.824 -8.53,1.586 -4.37,0.761 -7.78,1.394 -10.24,1.902 -3.22,0.851 -5.65,1.785 -7.3,2.801 -1.65,1.015 -2.91,2.39 -3.8,4.125 -0.89,1.738 -1.36,4.004 -1.4,6.797 0,3.894 1.59,7.292 4.74,10.195 3.16,2.898 7.61,4.351 13.38,4.351 4.02,0 7.67,-0.718 10.9,-2.156 3.24,-1.437 5.53,-3.086 6.83,-4.945 0.35,-2.031 0.55,-5.496 0.64,-10.399 h 5.31 c 0.12,4.305 0.32,7.778 0.6,10.414 z m -163.91,6.286 c 0.42,-0.254 0.73,-0.614 0.94,-1.082 0.42,-1.059 0.67,-4.231 0.76,-9.52 l 0.31,-13.398 v -23.555 l -0.54,-18.539 c -0.13,-3.348 -0.34,-5.848 -0.64,-7.496 -0.12,-0.891 -0.3,-1.481 -0.53,-1.778 -0.23,-0.293 -0.59,-0.507 -1.1,-0.636 -0.89,-0.293 -3.73,-0.528 -8.52,-0.696 v -5.625 c 5.62,0.313 11.73,0.469 18.32,0.469 7.39,0 14.71,-0.156 21.94,-0.469 v 5.625 c -4.05,0.082 -6.52,0.207 -7.36,0.379 -0.84,0.172 -1.46,0.395 -1.84,0.668 -0.38,0.274 -0.66,0.582 -0.83,0.926 -0.33,0.715 -0.57,2.266 -0.69,4.637 -0.08,1.187 -0.21,6.136 -0.37,14.867 -0.11,7.117 -0.18,13.855 -0.18,20.207 0,4.023 0.14,12.031 0.39,24.02 0.14,5.324 0.26,8.753 0.39,10.273 1.98,0.336 3.99,0.508 6.03,0.508 4.57,0 7.73,-0.321 9.51,-0.953 2.74,-1.02 5.05,-2.825 6.9,-5.411 1.87,-2.589 2.79,-5.832 2.79,-9.73 0,-3.863 -0.88,-7.352 -2.67,-10.465 -1.77,-3.121 -3.95,-5.285 -6.53,-6.496 -2.58,-1.203 -6.42,-1.726 -11.5,-1.555 l -0.7,-2.097 c 1.28,-0.93 2.59,-2.324 3.93,-4.188 2.71,-3.683 6.01,-8.746 9.92,-15.176 l 13.58,-22.421 c 0.8,-1.481 1.31,-2.688 1.52,-3.618 3.34,0.157 6.71,0.235 10.09,0.235 2.92,0 7.64,-0.078 14.16,-0.235 v 5.625 c -1.99,0.043 -3.32,0.207 -3.99,0.5 -0.69,0.293 -1.39,0.821 -2.1,1.579 -0.73,0.757 -2.67,3.234 -5.84,7.425 -0.22,0.301 -1.63,2.399 -4.26,6.301 l -9.83,14.672 c -0.27,0.375 -0.5,0.777 -0.74,1.195 -0.24,0.422 -1.03,1.617 -2.39,3.59 -1.35,1.973 -2.56,3.902 -3.6,5.793 6.58,2.453 11.46,5.781 14.64,9.973 3.16,4.191 4.75,8.847 4.75,13.976 0,4.317 -1.16,7.977 -3.48,10.985 -2.33,3.007 -5.14,4.988 -8.43,5.937 -3.3,0.957 -8.27,1.434 -14.91,1.434 -3.43,0 -7.76,-0.114 -13,-0.348 -3.18,-0.187 -6.97,-0.277 -11.42,-0.277 -5.19,0 -9.22,0.051 -12.05,0.156 -5.79,0.207 -9.18,0.313 -10.15,0.313 v -5.235 c 5.21,-0.34 8.32,-0.762 9.32,-1.269 v 0 z m -83.47,-81.778 c 3.8,0 10.75,-0.078 20.8,-0.234 l 10.22,-0.234 c 4.99,0 8.84,0.156 11.54,0.468 l 0.82,0.824 c 0,5.411 0.45,12.293 1.37,20.661 h -5.22 c -0.85,-5.657 -1.65,-9.5 -2.42,-11.524 -0.25,-0.594 -0.51,-0.972 -0.82,-1.14 -0.88,-0.551 -3.25,-0.977 -7.11,-1.27 -3.84,-0.297 -8.05,-0.441 -12.6,-0.441 -4.68,0 -8.72,0.156 -12.14,0.468 -0.11,2.133 -0.16,4.676 -0.16,7.645 v 26.574 c 2.68,0.313 6.1,0.469 10.22,0.469 4.61,0 8.38,-0.231 11.31,-0.695 1.32,-0.211 2.24,-0.739 2.75,-1.582 0.68,-1.141 1,-4.157 0.97,-9.051 h 5.14 l -0.31,13.875 0.31,13.937 h -5.14 c -0.1,-3.761 -0.39,-6.441 -0.89,-8.047 -0.22,-0.636 -0.52,-1.082 -0.92,-1.336 -0.4,-0.253 -1.74,-0.398 -4,-0.441 -6.02,-0.168 -9.51,-0.254 -10.47,-0.254 -3.12,0 -6.11,0.102 -8.97,0.313 v 13.086 c 0,7.406 0.29,13.507 0.86,18.32 3.93,0.312 7.76,0.469 11.51,0.469 4,0 8.09,-0.231 12.26,-0.7 2.82,-0.293 4.51,-0.636 5.06,-1.015 0.34,-0.254 0.59,-0.68 0.76,-1.27 0.29,-1.144 0.48,-4.211 0.58,-9.203 h 4.91 c 0.38,5.469 0.59,8.52 0.64,9.152 l 1.21,9.161 -0.44,0.828 c -0.98,0.273 -1.67,0.41 -2.09,0.41 -4.65,0.168 -7.74,0.254 -9.26,0.254 l -12.87,-0.32 c -7.11,-0.125 -13.56,-0.188 -19.35,-0.188 -2.66,0 -5.45,-0.008 -8.37,-0.027 l -14.71,-0.129 v -4.922 c 4.98,-0.254 8.03,-0.637 9.17,-1.141 0.43,-0.215 0.76,-0.531 0.96,-0.957 0.46,-1.054 0.76,-3.972 0.89,-8.75 0.1,-7.148 0.16,-11.273 0.16,-12.371 v -28.547 c 0,-3.301 -0.18,-8.586 -0.53,-15.859 -0.17,-3.973 -0.39,-6.856 -0.65,-8.625 -1.59,-1.27 -3.65,-2.496 -6.17,-3.684 v -3.425 c 13.11,0.312 20.18,0.468 21.19,0.468 v 0 z m -91.832,-1.015 c 2.578,7.23 7.5,19.558 14.782,36.98 l 8.56,20.43 4.51,10.527 c 3.64,8.711 6.03,13.512 7.17,14.399 0.67,0.507 3.06,0.953 7.18,1.336 v 5.625 l -13.72,-0.469 -16.12,0.469 v -5.625 c 1.92,-0.047 4.24,-0.192 6.99,-0.446 1.22,-0.082 1.98,-0.191 2.29,-0.312 0.37,-0.172 0.68,-0.442 0.92,-0.797 0.22,-0.356 0.35,-0.899 0.35,-1.617 0,-0.508 -0.04,-1.016 -0.14,-1.524 -0.42,-1.73 -1.58,-5.137 -3.48,-10.207 -2.67,-7.199 -4.17,-11.203 -4.52,-12.004 l -14.108,-34.929 -16.058,39.183 c -0.172,0.469 -0.297,0.86 -0.411,1.176 -0.109,0.316 -0.96,2.422 -2.57,6.32 -2.793,6.762 -4.187,10.782 -4.187,12.051 0,0.633 0.175,1.152 0.535,1.551 0.363,0.402 1.004,0.707 1.937,0.918 1.606,0.383 4.188,0.59 7.746,0.637 v 5.625 l -22.793,-0.469 c -2.199,0 -8.378,0.156 -18.531,0.469 v -5.625 c 3.973,-0.086 6.602,-0.465 7.871,-1.141 0.84,-0.469 2.082,-2.317 3.711,-5.555 1.633,-3.234 5.985,-13.285 13.043,-30.16 l 9.02,-21.504 c 3.3,-7.996 6.738,-16.433 10.336,-25.312 h 9.687 z m -101.379,88.828 c -6.898,0 -13.015,0.156 -18.347,0.469 v -5.625 c 4.589,-0.172 7.25,-0.348 7.992,-0.54 0.738,-0.191 1.234,-0.433 1.511,-0.73 0.278,-0.293 0.477,-0.719 0.598,-1.266 0.301,-1.359 0.547,-4.718 0.758,-10.089 0.113,-2.411 0.16,-7.821 0.16,-16.239 v -26.515 c 0,-4.317 -0.18,-9.008 -0.551,-14.082 -0.207,-3.465 -0.375,-5.454 -0.5,-5.961 -0.086,-0.379 -0.285,-0.719 -0.597,-1.016 -0.321,-0.297 -0.918,-0.527 -1.797,-0.699 -0.676,-0.125 -3.196,-0.274 -7.574,-0.442 v -5.625 c 5.332,0.313 11.41,0.469 18.222,0.469 7.828,0 15.199,-0.156 22.102,-0.469 v 5.625 c -4.192,0.082 -6.723,0.223 -7.606,0.414 -0.867,0.192 -1.507,0.438 -1.918,0.762 -0.398,0.313 -0.687,0.77 -0.859,1.363 -0.43,1.309 -0.641,4.141 -0.641,8.5 l -0.16,11.606 v 25.562 c 0,0.805 0.094,6.407 0.27,16.813 0.043,3.039 0.109,5.117 0.199,6.215 0.133,2.031 0.344,3.402 0.641,4.121 0.128,0.426 0.359,0.769 0.703,1.051 0.336,0.273 0.906,0.507 1.718,0.695 0.809,0.191 3.36,0.348 7.653,0.477 v 5.625 c -6.903,-0.313 -14.235,-0.469 -21.977,-0.469 v 0 z m -146.316,-88.36 c 7.058,0.313 12.652,0.469 16.765,0.469 1.118,0 5.688,-0.078 13.735,-0.234 v 5.156 c -0.598,-0.047 -1.02,-0.066 -1.274,-0.066 -1.265,0 -3.273,0.171 -6.027,0.507 -1.019,0.129 -1.73,0.352 -2.129,0.672 -0.402,0.317 -0.687,0.727 -0.859,1.235 -0.332,1.058 -0.59,4.043 -0.762,8.953 -0.309,7.117 -0.469,13.953 -0.469,20.515 v 31.625 c 25.082,-30.605 44.457,-53.55 58.117,-68.832 3.704,-0.504 7.333,-1.05 10.903,-1.64 l 0.828,0.57 c -0.574,6.012 -0.859,23.094 -0.859,51.25 0,3.594 0.093,9.176 0.273,16.727 0.176,7.558 0.586,12.398 1.23,14.511 0.118,0.426 0.356,0.743 0.7,0.953 0.968,0.637 4.039,1.016 9.199,1.145 v 5.313 c -6.602,-0.313 -11.992,-0.469 -16.184,-0.469 -4.304,0 -9.047,0.156 -14.218,0.469 v -5.313 c 5.628,-0.086 8.929,-0.508 9.914,-1.27 0.586,-0.464 0.964,-1.48 1.136,-3.054 0.512,-4.024 0.762,-17.422 0.762,-40.203 v -14.68 c -5.879,6.055 -13.281,14.441 -22.203,25.148 -12.398,14.86 -22.949,27.985 -31.66,39.372 l -5.84,-0.235 -9.207,-0.234 c -2.539,0 -6.5,0.156 -11.871,0.469 v -5.313 c 4.48,-0.301 7.18,-0.574 8.109,-0.828 0.93,-0.254 1.602,-0.606 1.996,-1.043 0.403,-0.449 0.703,-1.133 0.926,-2.066 0.207,-0.934 0.332,-2.946 0.379,-6.036 l 0.309,-18.48 v -20.391 c 0,-5.636 -0.086,-10.207 -0.258,-13.722 -0.352,-6.18 -0.653,-10.079 -0.91,-11.684 -0.219,-1.187 -0.485,-1.973 -0.801,-2.352 -0.32,-0.382 -0.711,-0.656 -1.172,-0.828 -0.719,-0.207 -3.578,-0.441 -8.578,-0.695 v -5.391 z M 630.77,339.438 c 0.851,-0.633 1.394,-1.188 1.601,-1.649 0.395,-0.848 0.641,-2.203 0.774,-4.062 0.21,-4.743 0.308,-10.075 0.308,-16.004 v -16.125 l -0.058,-12.196 c 0,-6.687 0.105,-10.789 0.316,-12.312 0.293,-2.461 1.125,-5.012 2.48,-7.656 1.352,-2.641 3.321,-5.036 5.903,-7.172 2.578,-2.141 5.91,-3.844 9.969,-5.114 5.589,-1.734 11.597,-2.601 18.039,-2.601 5.503,0 10.351,0.594 14.543,1.777 4.187,1.184 7.804,2.942 10.859,5.266 3.043,2.332 5.398,4.933 7.078,7.812 1.672,2.883 2.777,6.348 3.332,10.411 0.551,4.07 0.828,8.003 0.828,11.816 v 14.918 c 0,4.406 0.145,10.414 0.43,18.031 0.277,7.625 0.582,11.906 0.898,12.863 0.325,0.946 0.735,1.598 1.243,1.934 1.007,0.633 3.492,0.953 7.429,0.953 v 5.235 l -14.101,-0.403 c -0.754,-0.043 -1.328,-0.066 -1.707,-0.066 -1.442,0 -5.993,0.156 -13.649,0.469 v -5.235 c 4.695,-0.129 7.738,-0.555 9.137,-1.269 0.683,-0.34 1.16,-0.852 1.461,-1.524 0.461,-1.101 0.762,-4.324 0.89,-9.656 0.051,-2.461 0.079,-9.277 0.079,-20.453 v -12.957 c 0,-9.02 -0.747,-15.145 -2.231,-18.356 -1.48,-3.222 -3.969,-5.836 -7.457,-7.847 -3.488,-2.012 -8.184,-3.016 -14.062,-3.016 -5.122,0 -9.348,0.75 -12.668,2.254 -3.325,1.504 -5.793,3.473 -7.399,5.91 -1.613,2.43 -2.601,5.637 -2.984,9.621 -0.164,1.817 -0.25,6.602 -0.25,14.356 l -0.059,7.433 v 14.735 c 0,8.933 0.278,14.714 0.86,17.339 0.211,1.098 0.628,1.84 1.269,2.223 1.231,0.805 4.141,1.207 8.731,1.207 v 5.235 l -2.36,-0.079 -8.566,-0.234 -8.586,-0.156 -20.649,0.469 v -5.235 l 8.329,-0.89 v 0"
         style="fill:#1b4f9c;fill-opacity:1;fill-rule:nonzero;stroke:none"
         id="path20" /><path
         d="m 362.066,63.6992 v 86.7388 h 79.926 v 57.195 h -79.926 v 81.015 h 87.754 v -31.437 h 57.883 v 88.148 H 275.941 v -56.711 h 21.704 V 63.6992 H 276.02 V 6.51172 H 382.992 V 63.6992 h -20.926 v 0"
         style="fill:#1b4f9c;fill-opacity:1;fill-rule:nonzero;stroke:none"
         id="path22" /><path
         d="M 245.789,134.578 V 288.66 h 21.422 v 56.699 H 160.012 V 288.66 h 20.902 V 153.738 c 0,-56.5505 -6.539,-83.7302 -47.148,-83.7302 -40.6097,0 -47.1449,27.1797 -47.1449,83.7302 V 288.66 h 20.7419 v 56.699 H 0 V 288.66 H 21.2656 V 134.578 c 0,-33.652 0,-61.2303 15.875,-85.9921 C 54.8789,20.5352 87.0859,2.70313 133.766,2.70313 c 82.621,0 112.023,43.06637 112.023,131.87487 v 0"
         style="fill:#1b4f9c;fill-opacity:1;fill-rule:nonzero;stroke:none"
         id="path24" /><path
         d="M 560.715,345.465 V 6.62109 h 15 V 345.465 h -15 v 0"
         style="fill:#f3632b;fill-opacity:1;fill-rule:nonzero;stroke:none"
         id="path26" /><path
         d="m 1776.68,309.477 c 3.48,0 6.66,-0.024 9.59,-0.075 l -10.58,-54.746 c -2.78,-14.98 -5.03,-24.812 -6.73,-29.5 -0.88,-2.34 -1.93,-3.961 -3.13,-4.863 -1.2,-0.902 -2.5,-1.359 -3.92,-1.359 -1.47,0 -2.8,0.515 -4,1.535 -1.2,1.019 -2.3,2.695 -3.33,5.027 l -2.34,-0.437 c -0.55,-2.637 -1.14,-5.071 -1.81,-7.289 -0.65,-2.223 -1.67,-5.141 -3.04,-8.762 2,-0.828 3.86,-1.246 5.57,-1.246 2.29,0 4.69,0.66 7.18,1.98 4.73,2.488 9.41,6.41 14.02,11.75 4.62,5.348 8.31,11.524 11.06,18.528 2.76,7.011 6.1,18.394 10,34.164 l 8.12,35.218 c 1.61,0.051 4.06,0.075 7.34,0.075 5.25,0 9.02,-0.024 11.31,-0.075 0.49,2.403 1.25,4.93 2.28,7.575 l -0.73,1.175 c -1.58,-0.293 -3.96,-0.535 -7.13,-0.73 -5.25,-0.344 -8.53,-0.488 -9.85,-0.442 h -1.69 c 1.14,6.485 2.57,12.969 4.32,19.461 0.69,2.434 1.37,4.243 2.02,5.411 0.67,1.171 1.55,2.093 2.69,2.781 1.11,0.68 2.29,1.019 3.51,1.019 1.57,0 3.33,-0.632 5.29,-1.902 1.95,-1.273 3.95,-3.453 6.01,-6.535 l 2.19,0.441 c 0.83,5.867 2.22,12.106 4.14,18.699 -2.05,0.782 -4.04,1.172 -6.01,1.172 -2.98,0 -5.29,-0.351 -6.92,-1.058 -1.64,-0.707 -5.06,-2.938 -10.25,-6.699 -5.22,-3.754 -9.95,-7.614 -14.19,-11.563 -2.74,-2.582 -4.77,-5.098 -6.09,-7.535 -0.83,-1.563 -1.71,-4.442 -2.63,-8.637 -0.4,-1.855 -0.72,-3.148 -0.96,-3.883 -2.04,-0.929 -4.68,-1.855 -7.88,-2.761 -3.22,-0.911 -5.61,-1.661 -7.17,-2.25 l -0.65,-3.739 c 1.18,0.051 2.63,0.075 4.39,0.075 v 0 z m -67.26,-17.196 c 2.17,8.157 4.65,13.684 7.45,16.594 2.78,2.902 6.13,4.355 10.04,4.355 3.81,0 6.91,-1.328 9.28,-3.992 2.37,-2.66 3.57,-6.972 3.57,-12.929 0,-7.032 -1.04,-14.407 -3.09,-22.125 -1.42,-5.274 -2.97,-9.414 -4.66,-12.418 -1.69,-3 -3.54,-5.176 -5.57,-6.516 -2.04,-1.344 -4.44,-2.02 -7.23,-2.02 -4.16,0 -7.36,1.297 -9.65,3.887 -2.27,2.59 -3.41,6.887 -3.41,12.891 0,6.691 1.1,14.117 3.27,22.273 z m -18.56,-34.699 c 1.33,-3.59 3.68,-6.41 7.08,-8.461 3.4,-2.051 8.01,-3.074 13.81,-3.074 4.93,0 9.36,0.746 13.3,2.234 3.93,1.489 8.04,3.66 12.31,6.52 4.27,2.855 7.42,5.453 9.42,7.797 2.78,3.367 5.23,8.238 7.36,14.609 2.12,6.371 3.18,12.758 3.18,19.148 0,3.372 -0.41,6.477 -1.24,9.309 -0.83,2.832 -2.12,5.258 -3.87,7.285 -1.77,2.028 -4.39,3.672 -7.85,4.942 -3.47,1.269 -7.31,1.902 -11.51,1.902 -5.03,0 -9.77,-0.961 -14.25,-2.891 -4.47,-1.925 -8.57,-4.367 -12.31,-7.324 -3.74,-2.953 -6.34,-5.332 -7.79,-7.137 -2.36,-2.882 -4.54,-7.597 -6.57,-14.14 -2.03,-6.543 -3.03,-12.836 -3.03,-18.891 0,-4.297 0.65,-8.238 1.96,-11.828 v 0"
         style="fill:#1b4f9c;fill-opacity:1;fill-rule:nonzero;stroke:none"
         id="path28" /><path
         d="m 1819.84,165.535 32.42,-78.3397 c -9.2,-0.3125 -19.62,-0.4765 -31.25,-0.4765 -12.04,0 -22.81,0.164 -32.32,0.4765 l 31.15,78.3397 z M 1756.64,6.41406 1791.53,5.32031 V 17.8203 c -12,0.4024 -19.21,1.3008 -21.62,2.7149 -1.61,1.0078 -2.42,2.7187 -2.42,5.1171 0,3.4297 2.52,12.0704 7.54,25.9493 l 6.62,18.0937 h 78.14 l 12.97,-33.1836 c 2.32,-5.7304 3.48,-9.8515 3.48,-12.3633 0,-2.0117 -0.79,-3.4336 -2.34,-4.2968 -1.57,-0.8594 -8.46,-1.5313 -20.67,-2.0313 V 5.32031 l 53.11,1.09375 42.05,-1.09375 V 17.8203 c -2.93,0.293 -5.15,0.5469 -6.66,0.7422 -4.74,0.3164 -7.69,0.6641 -8.85,1.0664 -1.16,0.4102 -2.19,1.0039 -3.09,1.8242 -0.91,0.8047 -1.88,2.1094 -2.88,3.9375 l -6.05,13.9336 -9.38,20.7344 -67.61,158.0704 h -21.58 l -13.31,-34.371 -39.49,-97.508 c -7.47,-18.4687 -12.51,-30.8398 -15.12,-37.0898 -5.76,-13.3321 -9.21,-21.0274 -10.37,-23.0977 -1.17,-2.0703 -2.3,-3.582 -3.4,-4.5391 -1.12,-0.9492 -2.46,-1.6601 -4.02,-2.1211 -1.56,-0.4492 -6.42,-0.9765 -14.6,-1.582 V 5.32031 l 34.66,1.09375 z M 1584.91,83.4648 v 34.7582 c 0,39.59 0.52,66.539 1.56,80.843 9.39,1.356 17.97,2.032 25.75,2.032 20.67,0 36.11,-1.817 46.31,-5.45 10.18,-3.632 18.61,-9.488 25.27,-17.558 6.66,-8.07 11.45,-17.485 14.38,-28.227 2.92,-10.754 4.39,-21.886 4.39,-33.39 0,-12.594 -1.47,-24.3636 -4.39,-35.2621 -2.93,-10.8984 -7.04,-20.2851 -12.34,-28.1562 -5.29,-7.8711 -10.82,-13.8281 -16.56,-17.8711 -5.76,-4.0234 -12.46,-7.1094 -20.14,-9.2188 -10.4,-2.832 -22.29,-4.246 -35.72,-4.246 -8.58,0 -17.56,0.7812 -26.95,2.3515 -1.04,9.5703 -1.56,29.3555 -1.56,59.3945 v 0 z m -13.06,-77.05074 44.92,-1.09375 c 20.36,0 37.76,2.23828 52.19,6.73049 14.41,4.5 27.81,11.8437 40.15,22.039 12.35,10.1954 22.06,22.875 29.12,38.0196 7.06,15.1484 10.59,32.3636 10.59,51.6406 0,15.145 -2.36,29.082 -7.11,41.805 -2.82,7.57 -6.98,14.64 -12.48,21.203 -5.5,6.562 -12.23,12.242 -20.2,17.043 -7.97,4.793 -17.32,8.273 -28.05,10.445 -10.76,2.168 -25.05,3.258 -42.89,3.258 -7.78,0 -18.12,-0.176 -31.02,-0.527 -17.85,-0.586 -30.01,-0.879 -36.45,-0.879 l -54.93,1.093 v -12.187 c 10.96,-1.414 17.3,-2.324 19.01,-2.731 1.71,-0.402 2.97,-1.003 3.77,-1.812 0.5,-0.512 0.91,-1.215 1.21,-2.121 1,-3.942 1.66,-13.027 1.95,-27.266 0.52,-25.754 0.78,-45.293 0.78,-58.625 V 87.6055 c 0,-30.3907 -0.56,-52.3633 -1.72,-65.8867 -3.2,-2.336 -6.69,-4.5625 -10.48,-6.6797 -2.01,-1.125 -3.4,-1.9258 -4.19,-2.4336 V 5.32031 l 45.83,1.09375 z M 1454.72,216.098 c -16.48,0 -31.09,0.367 -43.82,1.093 V 203.91 c 11.03,-0.402 17.42,-0.836 19.19,-1.289 1.78,-0.453 3,-1.035 3.64,-1.742 0.66,-0.707 1.14,-1.719 1.46,-3.027 0.69,-3.235 1.3,-11.27 1.81,-24.094 0.21,-5.762 0.31,-18.692 0.31,-38.789 V 71.6328 c 0,-10.3047 -0.42,-21.5273 -1.25,-33.6445 -0.5,-8.2735 -0.9,-13.0274 -1.21,-14.2383 -0.21,-0.9102 -0.69,-1.7187 -1.44,-2.4336 -0.75,-0.7031 -2.2,-1.2578 -4.32,-1.6601 -1.62,-0.3125 -7.67,-0.6641 -18.19,-1.0547 V 5.32031 c 12.73,0.72657 27.23,1.09375 43.5,1.09375 18.71,0 36.28,-0.36718 52.75,-1.09375 V 18.6016 c -9.96,0.1992 -16,0.5312 -18.08,0.9765 -2.09,0.461 -3.61,1.0547 -4.58,1.8164 -0.96,0.7618 -1.66,1.8477 -2.06,3.2618 -1.01,3.1367 -1.53,9.9023 -1.53,20.3046 l -0.47,27.7227 V 133.75 c 0,1.926 0.21,15.313 0.63,40.156 0.1,7.274 0.26,12.227 0.47,14.852 0.31,4.851 0.81,8.133 1.53,9.851 0.3,1.008 0.87,1.84 1.68,2.493 0.81,0.66 2.18,1.218 4.12,1.671 1.92,0.454 8.02,0.836 18.29,1.137 v 13.281 c -16.47,-0.726 -33.95,-1.093 -52.43,-1.093 v 0 z m -241.48,-14.59 c 1,-0.61 1.75,-1.469 2.25,-2.574 1,-2.528 1.6,-10.094 1.8,-22.715 l 0.79,-31.953 V 88.0938 l -1.25,-44.2149 c -0.31,-7.9726 -0.8,-13.9297 -1.51,-17.8555 -0.31,-2.1289 -0.73,-3.5429 -1.29,-4.2382 -0.54,-0.7227 -1.42,-1.211 -2.62,-1.5235 -2.11,-0.7109 -8.91,-1.2695 -20.37,-1.6601 V 5.32031 c 13.41,0.72657 27.98,1.09375 43.72,1.09375 17.63,0 35.08,-0.36718 52.33,-1.09375 V 18.6016 c -9.68,0.1992 -15.54,0.5 -17.56,0.9101 -2.01,0.3985 -3.48,0.9258 -4.38,1.5742 -0.91,0.6602 -1.57,1.3946 -1.97,2.2032 -0.81,1.7109 -1.36,5.3906 -1.67,11.0351 -0.21,2.8242 -0.51,14.6289 -0.93,35.4102 -0.32,16.9258 -0.46,32.9686 -0.46,48.0976 0,9.578 0.3,28.621 0.92,57.176 0.33,12.734 0.63,20.926 0.94,24.562 4.75,0.813 9.55,1.215 14.41,1.215 10.9,0 18.47,-0.758 22.72,-2.269 6.56,-2.422 12.07,-6.711 16.52,-12.868 4.44,-6.156 6.66,-13.882 6.66,-23.16 0,-9.187 -2.11,-17.48 -6.35,-24.898 -4.26,-7.426 -9.46,-12.563 -15.63,-15.442 -6.17,-2.882 -15.31,-4.113 -27.44,-3.703 l -1.67,-5 c 3.03,-2.215 6.16,-5.547 9.4,-9.98 6.45,-8.7697 14.33,-20.8205 23.61,-36.1525 l 32.41,-53.3789 c 1.92,-3.5234 3.14,-6.40626 3.63,-8.61329 7.97,0.41016 16,0.625 24.08,0.625 6.95,0 18.2,-0.21484 33.75,-0.625 V 18.6016 c -4.75,0.0976 -7.92,0.5 -9.54,1.1953 -1.62,0.6992 -3.29,1.9492 -5,3.75 -1.71,1.8047 -6.35,7.7109 -13.93,17.7226 -0.51,0.7032 -3.89,5.7032 -10.15,15.0078 L 1336,91.2695 c -0.62,0.9063 -1.2,1.8438 -1.75,2.8516 -0.56,1.0078 -2.44,3.8477 -5.68,8.5629 -3.23,4.699 -6.11,9.308 -8.63,13.808 15.77,5.86 27.45,13.781 35.04,23.77 7.58,10 11.39,21.105 11.39,33.324 0,10.297 -2.79,19.031 -8.33,26.199 -5.56,7.168 -12.28,11.887 -20.15,14.156 -7.87,2.27 -19.73,3.407 -35.57,3.407 -8.18,0 -18.53,-0.289 -31.04,-0.868 -7.57,-0.464 -16.65,-0.695 -27.25,-0.695 -12.42,0 -22,0.121 -28.76,0.367 -13.82,0.485 -21.91,0.727 -24.23,0.727 v -12.344 c 12.41,-0.805 19.8,-1.816 22.2,-3.027 v 0 z m -198.12,-38.863 c 4.69,13.554 12.21,23.789 22.56,30.718 10.35,6.926 22.89,10.391 37.62,10.391 12.92,0 23.29,-2.176 31.12,-6.524 7.82,-4.347 14.61,-10.64 20.37,-18.882 5.74,-8.243 10.15,-18.231 13.23,-29.961 3.09,-11.727 4.62,-24.676 4.62,-38.828 0,-20.6254 -2.84,-38.1645 -8.55,-52.6254 -5.71,-14.4727 -13.58,-24.7383 -23.62,-30.8008 -10.04,-6.0664 -21.42,-9.1015 -34.13,-9.1015 -13.73,0 -25.64,3.1914 -35.74,9.5585 -10.08,6.3711 -18.36,17.2657 -24.83,32.6954 -6.46,15.4101 -9.68,34.9023 -9.68,58.4568 0,16.391 2.34,31.36 7.03,44.903 z M 975.445,48.7578 C 984.727,32.7031 997.5,20.5742 1013.81,12.3516 1030.08,4.12109 1049.58,0 1072.29,0 c 20.97,0 39.63,3.38672 55.97,10.1445 11.91,5.0586 22.52,12.2657 31.86,21.6602 9.32,9.3867 16.41,20.1367 21.26,32.2578 6.55,16.25 9.82,33.8672 9.82,52.8395 0,11.211 -1.13,21.457 -3.4,30.743 -2.26,9.289 -5.61,17.816 -10.06,25.585 -4.44,7.782 -10.91,15.372 -19.45,22.793 -8.51,7.422 -18.33,13.102 -29.41,17.043 -14.94,5.141 -31.59,7.719 -49.95,7.719 -18.46,0 -35.49,-2.676 -51.14,-8.023 -12.2,-4.242 -23.49,-11.16 -33.884,-20.75 -10.41,-9.59 -18.394,-21.25 -23.996,-34.981 -5.59,-13.73 -8.387,-29.836 -8.387,-48.301 0,-23.9331 4.637,-43.9175 13.922,-59.9722 z M 844.871,6.71875 c 6.551,0 18.152,-0.20703 34.801,-0.61719 21.883,-0.52734 33.742,-0.78125 35.555,-0.78125 12.91,0 22.433,0.25391 28.597,0.78125 2.918,0.3125 5.848,0.87891 8.77,1.71875 0.101,1.91407 0.558,7.65629 1.371,17.24609 l 3.801,30.5664 c 0,0.5078 0.144,2.168 0.457,5 h -12.5 c -1.918,-9.9414 -3.891,-18.7695 -5.91,-26.4609 -0.911,-3.0391 -1.77,-4.9258 -2.571,-5.625 -0.812,-0.7149 -3.289,-1.3711 -7.429,-1.9766 -11.411,-1.7734 -24.79,-2.6562 -40.141,-2.6562 -5.047,0 -14.551,0.3515 -28.481,1.0859 -0.105,3.0352 -0.191,11.6328 -0.238,25.8086 -0.051,14.1797 -0.133,28.4766 -0.23,42.9102 -0.098,27.3442 -0.153,41.9332 -0.153,43.7422 0,16.965 0.231,30.984 0.703,42.078 0.461,11.102 0.95,17.336 1.461,18.691 0.496,1.368 1.309,2.352 2.418,2.958 2.52,1.312 9.481,2.218 20.883,2.722 v 13.281 c -16.441,-0.726 -33.851,-1.093 -52.211,-1.093 -16.441,0 -31.07,0.367 -43.883,1.093 V 203.91 c 13.164,-0.504 20.903,-1.519 23.235,-3.031 1.105,-0.606 1.867,-1.516 2.277,-2.727 0.91,-2.722 1.539,-13.578 1.883,-32.558 0.18,-7.469 0.258,-27.149 0.258,-59.051 0,-21.7071 -0.211,-40.3125 -0.621,-55.8125 -0.418,-15.5078 -0.879,-24.5117 -1.383,-27.0313 -0.098,-0.6054 -0.348,-1.1601 -0.746,-1.6679 -0.61,-0.8125 -1.961,-1.8086 -4.074,-3.0196 -4.715,-2.832 -8.375,-4.8008 -10.985,-5.9179 V 5.32031 C 819.949,6.25 834.98,6.71875 844.871,6.71875 v 0 z M 760.609,144.531 h -13.285 c -0.199,-8.957 -0.754,-14.687 -1.648,-17.218 -0.613,-1.903 -1.567,-3.067 -2.871,-3.458 -3.418,-1.21 -11.653,-1.824 -24.715,-1.824 -4.527,0 -13.219,0.36 -26.078,1.063 v 21.054 c 0,26.172 0.57,44.266 1.718,54.293 2.825,0.18 8.145,0.411 15.942,0.684 7.808,0.273 12.57,0.41 14.293,0.41 8.855,0 16.586,-0.574 23.187,-1.726 6.602,-1.153 10.813,-2.332 12.621,-3.532 0.598,-0.304 1.055,-0.8 1.36,-1.5 0.398,-0.902 0.707,-3.554 0.91,-7.957 0.5,-8.414 0.75,-13.812 0.75,-16.218 h 12.348 c 0.101,6.66 0.55,14.429 1.351,23.312 0.813,8.883 1.762,16.199 2.867,21.957 l -1.367,2.121 c -9.082,1.012 -18.719,1.512 -28.922,1.512 l -72.824,-1.406 -53.766,1.093 v -12.656 c 9.762,-0.605 15.735,-1.16 17.918,-1.668 2.184,-0.504 3.618,-1.035 4.274,-1.59 0.66,-0.554 1.141,-1.39 1.449,-2.5 0.91,-3.23 1.473,-8.742 1.672,-16.519 0.937,-26.875 1.41,-41.028 1.41,-42.445 V 77.0703 c 0,-5.3515 -0.258,-14.1719 -0.781,-26.4375 -0.524,-12.2851 -0.942,-19.5859 -1.238,-21.9023 -0.508,-4.0352 -1.223,-6.6719 -2.141,-7.8828 -0.609,-0.8086 -1.371,-1.3672 -2.277,-1.668 -1.832,-0.7149 -8.59,-1.1641 -20.286,-1.3594 V 5.32031 c 18.625,0.72657 32.223,1.09375 40.821,1.09375 L 722.793,5.32031 V 17.3516 c -14.027,0.9961 -21.949,1.8359 -23.762,2.4922 -1.82,0.6523 -3.078,1.5351 -3.789,2.6445 -1.008,1.6133 -1.801,7.2265 -2.371,16.8555 -0.566,9.6289 -0.859,26.3984 -0.859,50.2851 v 16.7851 c 5.73,0.098 9.75,0.156 12.058,0.156 16.071,0 27.832,-0.664 35.27,-1.972 2.91,-0.606 4.723,-1.563 5.422,-2.871 1.41,-2.6176 2.258,-10.2348 2.562,-22.8129 h 13.285 c 0,26.6019 0,48.4879 0,65.6169 v 0 0"
         style="fill:#1b4f9c;fill-opacity:1;fill-rule:nonzero;stroke:none"
         id="path30" /><path
         d="m 1579.04,321.102 c -3.04,5.968 -6.11,11.226 -9.2,15.796 -2.07,3.086 -3.7,5.192 -4.89,6.309 -1.18,1.125 -3.06,2.402 -5.63,3.84 -2.42,-0.637 -4.77,-1.207 -7.04,-1.711 l -13.46,-2.664 v -4.766 c 3.17,0 5.04,-0.129 5.58,-0.383 0.89,-0.464 2.4,-1.839 4.52,-4.121 3.17,-3.464 6.6,-8.074 10.27,-13.828 4.53,-7.058 8.79,-14.226 12.76,-21.504 1.61,-3.043 2.43,-5.054 2.43,-6.023 v -12.051 c 0,-3.387 -0.11,-7.488 -0.33,-12.312 -0.11,-2.11 -0.35,-3.379 -0.66,-3.801 -0.31,-0.426 -0.89,-0.738 -1.72,-0.953 -0.82,-0.211 -3.64,-0.403 -8.48,-0.571 v -5.625 c 6.53,0.313 12.94,0.469 19.29,0.469 6.51,0 13.81,-0.156 21.9,-0.469 v 5.625 c -4.73,0.082 -7.52,0.254 -8.41,0.508 -0.9,0.254 -1.54,0.633 -1.92,1.141 -0.38,0.508 -0.71,1.988 -0.98,4.437 -0.29,2.457 -0.41,6.368 -0.41,11.739 v 10.722 c 0,2.199 0.09,3.785 0.3,4.758 0.3,1.356 0.92,2.938 1.84,4.762 1.4,2.664 5.07,8.656 11.01,17.969 5.94,9.308 11.48,17.41 16.6,24.308 v 2.86 h -10.03 c -0.58,-1.227 -2.05,-3.868 -4.36,-7.926 -6.68,-11.832 -10.7,-18.91 -12.04,-21.235 l -8,-12.937 c -1.01,2.195 -4,8.074 -8.94,17.637 v 0 z m -103.96,-63.821 c 5.64,0 12.58,-0.183 20.79,-0.547 v 5.235 c -5.1,0.168 -8.13,0.515 -9.1,1.047 -0.99,0.527 -1.61,1.343 -1.92,2.441 -0.47,1.863 -0.7,7.363 -0.7,16.5 v 38.012 c 0,10.113 0.06,15.91 0.2,17.39 h 9.07 c 4.87,0 9.04,-0.171 12.51,-0.507 1.1,-0.086 1.78,-0.231 2.03,-0.446 0.3,-0.293 0.58,-1.203 0.83,-2.726 0.48,-3 0.74,-6.153 0.83,-9.446 h 5.23 c 0.12,8.93 0.21,13.563 0.26,13.899 0.08,1.949 0.3,4.211 0.68,6.793 l -0.63,0.637 c -1.99,-0.211 -3.96,-0.352 -5.89,-0.438 -3.61,-0.125 -10.73,-0.187 -21.38,-0.187 h -25.6 c -10.37,0 -17.36,0.062 -21,0.187 -2.24,0.086 -4.35,0.227 -6.34,0.438 l -0.57,-0.637 c 0.3,-2.156 0.5,-4.164 0.63,-6.031 0.04,-1.098 0.15,-5.985 0.31,-14.661 h 5.24 c 0.08,3.676 0.41,6.996 0.95,9.954 0.21,1.226 0.46,1.964 0.77,2.218 0.2,0.215 1.01,0.379 2.42,0.508 3.46,0.297 7.5,0.445 12.07,0.445 h 9.1 c 0.11,-1.226 0.16,-7.023 0.16,-17.39 v -38.012 c 0,-9.137 -0.24,-14.613 -0.71,-16.434 -0.34,-1.187 -0.98,-2.031 -1.94,-2.539 -0.96,-0.507 -3.98,-0.847 -9.07,-1.015 v -5.235 c 7.83,0.364 14.76,0.547 20.77,0.547 v 0 z m -88.17,87.813 c -6.9,0 -13.01,0.156 -18.35,0.469 v -5.625 c 4.59,-0.172 7.25,-0.348 7.99,-0.54 0.74,-0.191 1.24,-0.433 1.52,-0.73 0.27,-0.293 0.47,-0.719 0.59,-1.266 0.3,-1.359 0.55,-4.718 0.76,-10.089 0.1,-2.411 0.16,-7.821 0.16,-16.239 v -26.515 c 0,-4.317 -0.19,-9.008 -0.55,-14.082 -0.21,-3.465 -0.38,-5.454 -0.49,-5.961 -0.09,-0.379 -0.3,-0.719 -0.61,-1.016 -0.31,-0.297 -0.92,-0.527 -1.8,-0.699 -0.67,-0.125 -3.2,-0.274 -7.57,-0.442 v -5.625 c 5.34,0.313 11.41,0.469 18.23,0.469 7.82,0 15.18,-0.156 22.09,-0.469 v 5.625 c -4.18,0.082 -6.72,0.223 -7.6,0.414 -0.87,0.192 -1.5,0.438 -1.91,0.762 -0.41,0.313 -0.7,0.77 -0.86,1.363 -0.43,1.309 -0.65,4.141 -0.65,8.5 l -0.15,11.606 v 25.562 c 0,0.805 0.08,6.407 0.26,16.813 0.05,3.039 0.12,5.117 0.2,6.215 0.13,2.031 0.35,3.402 0.64,4.121 0.14,0.426 0.36,0.769 0.7,1.051 0.34,0.273 0.91,0.507 1.72,0.695 0.81,0.191 3.35,0.348 7.65,0.477 v 5.625 c -6.91,-0.313 -14.23,-0.469 -21.97,-0.469 v 0 z m -56.37,-12.321 c 0.26,2.637 0.69,5.329 1.28,8.071 l -0.51,1.519 c -3.09,1.52 -6.75,2.676 -10.96,3.481 -4.21,0.801 -8.55,1.203 -13.05,1.203 -4.32,0 -8.53,-0.477 -12.64,-1.426 -4.1,-0.953 -7.78,-2.531 -11.05,-4.726 -3.26,-2.204 -5.88,-5.301 -7.87,-9.297 -1.99,-4 -2.99,-8.368 -2.99,-13.102 0,-3.391 0.55,-6.547 1.65,-9.488 1.1,-2.938 2.78,-5.445 4.99,-7.52 2.22,-2.074 5.15,-3.66 8.8,-4.761 2.42,-0.715 7.45,-1.879 15.11,-3.489 5.34,-1.226 9.06,-2.414 11.18,-3.554 2.12,-1.149 3.67,-2.672 4.67,-4.579 1,-1.902 1.49,-4.191 1.49,-6.859 0,-3.172 -0.71,-6.012 -2.12,-8.512 -1.42,-2.5 -3.71,-4.453 -6.87,-5.871 -3.14,-1.422 -6.74,-2.129 -10.76,-2.129 -4.62,0 -8.88,1 -12.76,2.993 -3.91,1.992 -6.66,4.304 -8.27,6.937 -0.54,4.543 -0.79,8.34 -0.7,11.399 h -5.3 c -0.06,-9.864 -0.73,-17.215 -2.04,-22.04 4.86,-2.371 9.32,-4.043 13.39,-5.015 4.06,-0.973 8.7,-1.461 13.89,-1.461 7.11,0 13.2,1.016 18.28,3.047 3.18,1.269 6.26,3.183 9.26,5.742 3,2.559 5.35,5.383 7.05,8.469 2.25,4.101 3.36,8.863 3.36,14.277 0,3.086 -0.4,5.871 -1.21,8.348 -0.8,2.472 -1.83,4.523 -3.07,6.152 -1.25,1.629 -2.93,3.07 -5.05,4.316 -2.1,1.243 -4.88,2.313 -8.31,3.204 -1.3,0.296 -4.15,0.824 -8.53,1.586 -4.37,0.761 -7.78,1.394 -10.24,1.902 -3.22,0.851 -5.65,1.785 -7.3,2.801 -1.65,1.015 -2.91,2.39 -3.8,4.125 -0.89,1.738 -1.36,4.004 -1.4,6.797 0,3.894 1.59,7.292 4.74,10.195 3.16,2.898 7.61,4.351 13.38,4.351 4.02,0 7.67,-0.718 10.9,-2.156 3.24,-1.437 5.53,-3.086 6.83,-4.945 0.35,-2.031 0.55,-5.496 0.64,-10.399 h 5.31 c 0.12,4.305 0.32,7.778 0.6,10.414 z m -163.91,6.286 c 0.42,-0.254 0.73,-0.614 0.94,-1.082 0.42,-1.059 0.67,-4.231 0.76,-9.52 l 0.31,-13.398 v -23.555 l -0.54,-18.539 c -0.13,-3.348 -0.34,-5.848 -0.64,-7.496 -0.12,-0.891 -0.3,-1.481 -0.53,-1.778 -0.23,-0.293 -0.59,-0.507 -1.1,-0.636 -0.89,-0.293 -3.73,-0.528 -8.52,-0.696 v -5.625 c 5.62,0.313 11.73,0.469 18.32,0.469 7.39,0 14.71,-0.156 21.94,-0.469 v 5.625 c -4.05,0.082 -6.52,0.207 -7.36,0.379 -0.84,0.172 -1.46,0.395 -1.84,0.668 -0.38,0.274 -0.66,0.582 -0.83,0.926 -0.33,0.715 -0.57,2.266 -0.69,4.637 -0.08,1.187 -0.21,6.136 -0.37,14.867 -0.11,7.117 -0.18,13.855 -0.18,20.207 0,4.023 0.14,12.031 0.39,24.02 0.14,5.324 0.26,8.753 0.39,10.273 1.98,0.336 3.99,0.508 6.03,0.508 4.57,0 7.73,-0.321 9.51,-0.953 2.74,-1.02 5.05,-2.825 6.9,-5.411 1.87,-2.589 2.79,-5.832 2.79,-9.73 0,-3.863 -0.88,-7.352 -2.67,-10.465 -1.77,-3.121 -3.95,-5.285 -6.53,-6.496 -2.58,-1.203 -6.42,-1.726 -11.5,-1.555 l -0.7,-2.097 c 1.28,-0.93 2.59,-2.324 3.93,-4.188 2.71,-3.683 6.01,-8.746 9.92,-15.176 l 13.58,-22.421 c 0.8,-1.481 1.31,-2.688 1.52,-3.618 3.34,0.157 6.71,0.235 10.09,0.235 2.92,0 7.64,-0.078 14.16,-0.235 v 5.625 c -1.99,0.043 -3.32,0.207 -3.99,0.5 -0.69,0.293 -1.39,0.821 -2.1,1.579 -0.73,0.757 -2.67,3.234 -5.84,7.425 -0.22,0.301 -1.63,2.399 -4.26,6.301 l -9.83,14.672 c -0.27,0.375 -0.5,0.777 -0.74,1.195 -0.24,0.422 -1.03,1.617 -2.39,3.59 -1.35,1.973 -2.56,3.902 -3.6,5.793 6.58,2.453 11.46,5.781 14.64,9.973 3.16,4.191 4.75,8.847 4.75,13.976 0,4.317 -1.16,7.977 -3.48,10.985 -2.33,3.007 -5.14,4.988 -8.43,5.937 -3.3,0.957 -8.27,1.434 -14.91,1.434 -3.43,0 -7.76,-0.114 -13,-0.348 -3.18,-0.187 -6.97,-0.277 -11.42,-0.277 -5.19,0 -9.22,0.051 -12.05,0.156 -5.79,0.207 -9.18,0.313 -10.15,0.313 v -5.235 c 5.21,-0.34 8.32,-0.762 9.32,-1.269 v 0 z m -83.47,-81.778 c 3.8,0 10.75,-0.078 20.8,-0.234 l 10.22,-0.234 c 4.99,0 8.84,0.156 11.54,0.468 l 0.82,0.824 c 0,5.411 0.45,12.293 1.37,20.661 h -5.22 c -0.85,-5.657 -1.65,-9.5 -2.42,-11.524 -0.25,-0.594 -0.51,-0.972 -0.82,-1.14 -0.88,-0.551 -3.25,-0.977 -7.11,-1.27 -3.84,-0.297 -8.05,-0.441 -12.6,-0.441 -4.68,0 -8.72,0.156 -12.14,0.468 -0.11,2.133 -0.16,4.676 -0.16,7.645 v 26.574 c 2.68,0.313 6.1,0.469 10.22,0.469 4.61,0 8.38,-0.231 11.31,-0.695 1.32,-0.211 2.24,-0.739 2.75,-1.582 0.68,-1.141 1,-4.157 0.97,-9.051 h 5.14 l -0.31,13.875 0.31,13.937 h -5.14 c -0.1,-3.761 -0.39,-6.441 -0.89,-8.047 -0.22,-0.636 -0.52,-1.082 -0.92,-1.336 -0.4,-0.253 -1.74,-0.398 -4,-0.441 -6.02,-0.168 -9.51,-0.254 -10.47,-0.254 -3.12,0 -6.11,0.102 -8.97,0.313 v 13.086 c 0,7.406 0.29,13.507 0.86,18.32 3.93,0.312 7.76,0.469 11.51,0.469 4,0 8.09,-0.231 12.26,-0.7 2.82,-0.293 4.51,-0.636 5.06,-1.015 0.34,-0.254 0.59,-0.68 0.76,-1.27 0.29,-1.144 0.48,-4.211 0.58,-9.203 h 4.91 c 0.38,5.469 0.59,8.52 0.64,9.152 l 1.21,9.161 -0.44,0.828 c -0.98,0.273 -1.67,0.41 -2.09,0.41 -4.65,0.168 -7.74,0.254 -9.26,0.254 l -12.87,-0.32 c -7.11,-0.125 -13.56,-0.188 -19.35,-0.188 -2.66,0 -5.45,-0.008 -8.37,-0.027 l -14.71,-0.129 v -4.922 c 4.98,-0.254 8.03,-0.637 9.17,-1.141 0.43,-0.215 0.76,-0.531 0.96,-0.957 0.46,-1.054 0.76,-3.972 0.89,-8.75 0.1,-7.148 0.16,-11.273 0.16,-12.371 v -28.547 c 0,-3.301 -0.18,-8.586 -0.53,-15.859 -0.17,-3.973 -0.39,-6.856 -0.65,-8.625 -1.59,-1.27 -3.65,-2.496 -6.17,-3.684 v -3.425 c 13.11,0.312 20.18,0.468 21.19,0.468 v 0 z m -91.832,-1.015 c 2.578,7.23 7.5,19.558 14.782,36.98 l 8.56,20.43 4.51,10.527 c 3.64,8.711 6.03,13.512 7.17,14.399 0.67,0.507 3.06,0.953 7.18,1.336 v 5.625 l -13.72,-0.469 -16.12,0.469 v -5.625 c 1.92,-0.047 4.24,-0.192 6.99,-0.446 1.22,-0.082 1.98,-0.191 2.29,-0.312 0.37,-0.172 0.68,-0.442 0.92,-0.797 0.22,-0.356 0.35,-0.899 0.35,-1.617 0,-0.508 -0.04,-1.016 -0.14,-1.524 -0.42,-1.73 -1.58,-5.137 -3.48,-10.207 -2.67,-7.199 -4.17,-11.203 -4.52,-12.004 l -14.108,-34.929 -16.058,39.183 c -0.172,0.469 -0.297,0.86 -0.411,1.176 -0.109,0.316 -0.96,2.422 -2.57,6.32 -2.793,6.762 -4.187,10.782 -4.187,12.051 0,0.633 0.175,1.152 0.535,1.551 0.363,0.402 1.004,0.707 1.937,0.918 1.606,0.383 4.188,0.59 7.746,0.637 v 5.625 l -22.793,-0.469 c -2.199,0 -8.378,0.156 -18.531,0.469 v -5.625 c 3.973,-0.086 6.602,-0.465 7.871,-1.141 0.84,-0.469 2.082,-2.317 3.711,-5.555 1.633,-3.234 5.985,-13.285 13.043,-30.16 l 9.02,-21.504 c 3.3,-7.996 6.738,-16.433 10.336,-25.312 h 9.687 z m -101.379,88.828 c -6.898,0 -13.015,0.156 -18.347,0.469 v -5.625 c 4.589,-0.172 7.25,-0.348 7.992,-0.54 0.738,-0.191 1.234,-0.433 1.511,-0.73 0.278,-0.293 0.477,-0.719 0.598,-1.266 0.301,-1.359 0.547,-4.718 0.758,-10.089 0.113,-2.411 0.16,-7.821 0.16,-16.239 v -26.515 c 0,-4.317 -0.18,-9.008 -0.551,-14.082 -0.207,-3.465 -0.375,-5.454 -0.5,-5.961 -0.086,-0.379 -0.285,-0.719 -0.597,-1.016 -0.321,-0.297 -0.918,-0.527 -1.797,-0.699 -0.676,-0.125 -3.196,-0.274 -7.574,-0.442 v -5.625 c 5.332,0.313 11.41,0.469 18.222,0.469 7.828,0 15.199,-0.156 22.102,-0.469 v 5.625 c -4.192,0.082 -6.723,0.223 -7.606,0.414 -0.867,0.192 -1.507,0.438 -1.918,0.762 -0.398,0.313 -0.687,0.77 -0.859,1.363 -0.43,1.309 -0.641,4.141 -0.641,8.5 l -0.16,11.606 v 25.562 c 0,0.805 0.094,6.407 0.27,16.813 0.043,3.039 0.109,5.117 0.199,6.215 0.133,2.031 0.344,3.402 0.641,4.121 0.128,0.426 0.359,0.769 0.703,1.051 0.336,0.273 0.906,0.507 1.718,0.695 0.809,0.191 3.36,0.348 7.653,0.477 v 5.625 c -6.903,-0.313 -14.235,-0.469 -21.977,-0.469 v 0 z m -146.316,-88.36 c 7.058,0.313 12.652,0.469 16.765,0.469 1.118,0 5.688,-0.078 13.735,-0.234 v 5.156 c -0.598,-0.047 -1.02,-0.066 -1.274,-0.066 -1.265,0 -3.273,0.171 -6.027,0.507 -1.019,0.129 -1.73,0.352 -2.129,0.672 -0.402,0.317 -0.687,0.727 -0.859,1.235 -0.332,1.058 -0.59,4.043 -0.762,8.953 -0.309,7.117 -0.469,13.953 -0.469,20.515 v 31.625 c 25.082,-30.605 44.457,-53.55 58.117,-68.832 3.704,-0.504 7.333,-1.05 10.903,-1.64 l 0.828,0.57 c -0.574,6.012 -0.859,23.094 -0.859,51.25 0,3.594 0.093,9.176 0.273,16.727 0.176,7.558 0.586,12.398 1.23,14.511 0.118,0.426 0.356,0.743 0.7,0.953 0.968,0.637 4.039,1.016 9.199,1.145 v 5.313 c -6.602,-0.313 -11.992,-0.469 -16.184,-0.469 -4.304,0 -9.047,0.156 -14.218,0.469 v -5.313 c 5.628,-0.086 8.929,-0.508 9.914,-1.27 0.586,-0.464 0.964,-1.48 1.136,-3.054 0.512,-4.024 0.762,-17.422 0.762,-40.203 v -14.68 c -5.879,6.055 -13.281,14.441 -22.203,25.148 -12.398,14.86 -22.949,27.985 -31.66,39.372 l -5.84,-0.235 -9.207,-0.234 c -2.539,0 -6.5,0.156 -11.871,0.469 v -5.313 c 4.48,-0.301 7.18,-0.574 8.109,-0.828 0.93,-0.254 1.602,-0.606 1.996,-1.043 0.403,-0.449 0.703,-1.133 0.926,-2.066 0.207,-0.934 0.332,-2.946 0.379,-6.036 l 0.309,-18.48 v -20.391 c 0,-5.636 -0.086,-10.207 -0.258,-13.722 -0.352,-6.18 -0.653,-10.079 -0.91,-11.684 -0.219,-1.187 -0.485,-1.973 -0.801,-2.352 -0.32,-0.382 -0.711,-0.656 -1.172,-0.828 -0.719,-0.207 -3.578,-0.441 -8.578,-0.695 v -5.391 z M 630.77,339.438 c 0.851,-0.633 1.394,-1.188 1.601,-1.649 0.395,-0.848 0.641,-2.203 0.774,-4.062 0.21,-4.743 0.308,-10.075 0.308,-16.004 v -16.125 l -0.058,-12.196 c 0,-6.687 0.105,-10.789 0.316,-12.312 0.293,-2.461 1.125,-5.012 2.48,-7.656 1.352,-2.641 3.321,-5.036 5.903,-7.172 2.578,-2.141 5.91,-3.844 9.969,-5.114 5.589,-1.734 11.597,-2.601 18.039,-2.601 5.503,0 10.351,0.594 14.543,1.777 4.187,1.184 7.804,2.942 10.859,5.266 3.043,2.332 5.398,4.933 7.078,7.812 1.672,2.883 2.777,6.348 3.332,10.411 0.551,4.07 0.828,8.003 0.828,11.816 v 14.918 c 0,4.406 0.145,10.414 0.43,18.031 0.277,7.625 0.582,11.906 0.898,12.863 0.325,0.946 0.735,1.598 1.243,1.934 1.007,0.633 3.492,0.953 7.429,0.953 v 5.235 l -14.101,-0.403 c -0.754,-0.043 -1.328,-0.066 -1.707,-0.066 -1.442,0 -5.993,0.156 -13.649,0.469 v -5.235 c 4.695,-0.129 7.738,-0.555 9.137,-1.269 0.683,-0.34 1.16,-0.852 1.461,-1.524 0.461,-1.101 0.762,-4.324 0.89,-9.656 0.051,-2.461 0.079,-9.277 0.079,-20.453 v -12.957 c 0,-9.02 -0.747,-15.145 -2.231,-18.356 -1.48,-3.222 -3.969,-5.836 -7.457,-7.847 -3.488,-2.012 -8.184,-3.016 -14.062,-3.016 -5.122,0 -9.348,0.75 -12.668,2.254 -3.325,1.504 -5.793,3.473 -7.399,5.91 -1.613,2.43 -2.601,5.637 -2.984,9.621 -0.164,1.817 -0.25,6.602 -0.25,14.356 l -0.059,7.433 v 14.735 c 0,8.933 0.278,14.714 0.86,17.339 0.211,1.098 0.628,1.84 1.269,2.223 1.231,0.805 4.141,1.207 8.731,1.207 v 5.235 l -2.36,-0.079 -8.566,-0.234 -8.586,-0.156 -20.649,0.469 v -5.235 l 8.329,-0.89 v 0"
         style="fill:#1b4f9c;fill-opacity:1;fill-rule:nonzero;stroke:none"
         id="path32" /><path
         d="m 362.066,63.6992 v 86.7388 h 79.926 v 57.195 h -79.926 v 81.015 h 87.754 v -31.437 h 57.883 v 88.148 H 275.941 v -56.711 h 21.704 V 63.6992 H 276.02 V 6.51172 H 382.992 V 63.6992 h -20.926 v 0"
         style="fill:#1b4f9c;fill-opacity:1;fill-rule:nonzero;stroke:none"
         id="path34" /><path
         d="M 245.789,134.578 V 288.66 h 21.422 v 56.699 H 160.012 V 288.66 h 20.902 V 153.738 c 0,-56.5505 -6.539,-83.7302 -47.148,-83.7302 -40.6097,0 -47.1449,27.1797 -47.1449,83.7302 V 288.66 h 20.7419 v 56.699 H 0 V 288.66 H 21.2656 V 134.578 c 0,-33.652 0,-61.2303 15.875,-85.9921 C 54.8789,20.5352 87.0859,2.70313 133.766,2.70313 c 82.621,0 112.023,43.06637 112.023,131.87487 v 0"
         style="fill:#1b4f9c;fill-opacity:1;fill-rule:nonzero;stroke:none"
         id="path36" /></g></g></svg>
